<?xml version="1.0" standalone="no"?><!DOCTYPE svg PUBLIC "-//W3C//DTD SVG 1.1//EN" "http://www.w3.org/Graphics/SVG/1.1/DTD/svg11.dtd"><svg t="1750951359366" class="icon" viewBox="0 0 1024 1024" version="1.1" xmlns="http://www.w3.org/2000/svg" p-id="7860" xmlns:xlink="http://www.w3.org/1999/xlink" width="64" height="64"><path d="M705.4 319.3c0 40.1 32.5 72.6 72.6 72.6s72.6-32.5 72.6-72.6-32.5-72.6-72.6-72.6-72.6 32.5-72.6 72.6z" fill="#BFBFBF" p-id="7861"></path><path d="M1003.8 106.1c-5.7-6.4-13.6-10.5-22.2-11L521.5 63c-10.6-0.8-20.8 3.7-27.5 12l-93 115.8c-9.7 12.1-9.5 29.5 0.6 41.2L549 403.5 400.3 599.7l36.8-174.8c2.5-11.8-1.9-24.1-11.2-31.6L233.1 236.1l80.3-126.8c6.6-10.3 6.7-23.3 0.4-33.8-6.2-10.5-17.8-16.5-30-15.6L41.5 76.7c-8.6 0.6-16.5 4.5-22.1 11-5.7 6.4-8.4 14.9-7.8 23.4l56.2 804.7c0.6 8.6 4.5 16.5 11.1 22.2 6.4 5.7 15 8.4 23.4 7.8l178-13.2c17.8-1.4 31.1-16.8 29.7-34.5-1.4-17.8-16.8-31.3-34.5-29.7L130 879.2l-6.4-93.3L250 773.2c8.6-0.9 16.4-5 21.8-11.7 5.4-6.7 7.9-15.1 7.2-23.7-1.9-17.6-17.6-30.6-35.3-28.9l-124.4 12.5-40.6-582.5L225 128.7l-61.5 97.1c-8.7 13.9-5.8 32 6.9 42.4l200 162.7-59.2 281.6c-1 4.9-0.8 10.1 0.8 14.9-0.1 3.8 0.3 7.6 1.4 11.1l51.9 155.8c4 12.2 14.9 20.8 27.7 21.9L920.6 964c8.7 0.8 17.3-2 23.8-7.6 6.6-5.7 10.7-13.6 11.3-22.3l56.2-804.7c0.3-8.4-2.4-16.9-8.1-23.3z m-99.7 636.2l-416.1-40c-8.6-1-17.1 1.6-23.7 7.1-6.7 5.4-10.7 13.4-11.5 21.9-0.8 8.6 1.8 17 7.2 23.6 5.4 6.6 13.2 10.7 21.8 11.6l417.7 40.1-6.3 90.3-473.7-43.1-40-119.8 236.9-312.6c9.2-12.1 8.7-29-1.3-40.6L468.3 210.2l65.7-81.7 411.1 28.7-41 585.1z" fill="#BFBFBF" p-id="7862"></path></svg>
